#!OML:ASF F:\VICON\USERDATA\INSTALL\Justin_Nancy\Justin_Nancy.ASF
:FULLY-SPECIFIED
:DEGREES
200
root -18.9039 17.4153 10.2756 -170.271 -79.6838 173.594
lowerback 11.5573 1.04066 -1.48298
upperback 0.52326 1.31314 3.03746
thorax -6.04886 0.702197 3.82534
lowerneck -21.0356 -2.84863 -7.23793
upperneck 18.6634 -2.06713 1.55932
head 9.46489 -1.33189 1.42848
rclavicle 6.36111e-015 -1.43125e-014
rhumerus -59.3048 -1.93661 -86.0389
rradius 100.646
rwrist -16.4285
rhand -6.00457 22.6949
rfingers 7.12502
rthumb 19.828 -6.31373
lclavicle 6.36111e-015 -1.43125e-014
lhumerus -49.5503 -5.98065 96.5103
lradius 116.279
lwrist 22.0816
lhand -7.72474 7.38872
lfingers 7.12502
lthumb 18.1737 36.5597
rfemur -26.4409 -0.138017 25.5585
rtibia 34.0577
rfoot -4.79544 -4.7321
rtoes 14.3121
lfemur -1.10717 -7.37428 -21.2691
ltibia 58.6547
lfoot 20.7333 -13.5083
ltoes 3.31939
201
root -19.2277 17.3518 10.2454 -173.825 -79.7985 176.854
lowerback 11.8056 1.26303 -1.11463
upperback 0.581019 1.66148 3.23918
thorax -6.15042 0.86256 3.76926
lowerneck -21.0641 -2.91263 -6.81941
upperneck 18.9847 -2.18534 1.09831
head 9.57843 -1.41825 1.18197
rclavicle -1.0138e-014 1.03368e-014
rhumerus -58.5776 -1.48017 -86.4774
rradius 100.413
rwrist -16.9979
rhand -5.99164 22.5338
rfingers 7.12502
rthumb 19.8404 -6.47349
lclavicle -1.0138e-014 1.03368e-014
lhumerus -49.8016 -5.53268 96.711
lradius 114.335
lwrist 22.4363
lhand -8.78072 7.89569
lfingers 7.12502
lthumb 17.1575 37.1582
rfemur -25.686 1.07692 25.9815
rtibia 35.614
rfoot -6.7623 -6.66977
rtoes 13.8836
lfemur -2.42608 -6.6774 -20.0594
ltibia 61.4755
lfoot 19.4753 -13.5355
ltoes 3.28174
202
root -19.5387 17.2828 10.2226 -178.131 -79.8678 180.849
lowerback 12.2034 1.43227 -0.81542
upperback 0.609787 1.94214 3.64667
thorax -6.37002 0.993747 3.98081
lowerneck -21.0732 -2.95465 -6.75327
upperneck 19.3042 -2.15407 0.592954
head 9.68728 -1.46847 0.997473
rclavicle -3.18055e-015 1.11319e-014
rhumerus -57.7161 -0.644333 -86.7958
rradius 100.189
rwrist -17.4147
rhand -6.05608 22.7191
rfingers 7.12502
rthumb 19.7784 -6.29465
lclavicle -3.18055e-015 1.11319e-014
lhumerus -49.9876 -4.63032 96.9908
lradius 112.368
lwrist 23.0448
lhand -6.82762 8.52511
lfingers 7.12502
lthumb 19.0366 37.6135
rfemur -24.7769 1.62791 26.8033
rtibia 36.9171
rfoot -8.30149 -7.97333
rtoes 12.1489
lfemur -3.9119 -5.8902 -18.7152
ltibia 64.3099
lfoot 18.2518 -13.5157
ltoes 4.46518
203
root -19.8424 17.2149 10.2034 -183.22 -79.9963 185.75
lowerback 12.5914 1.50476 -0.257869
upperback 0.518289 2.13713 4.00272
thorax -6.69477 1.07635 4.00496
lowerneck -20.8803 -2.86884 -6.44587
upperneck 19.4797 -2.01523 -0.0104856
head 9.70088 -1.46055 0.756843
rclavicle 1.98785e-016 -9.54166e-015
rhumerus -56.8135 0.185263 -87.2604
rradius 99.98
rwrist -17.421
rhand -6.18223 22.9867
rfingers 7.12502
rthumb 19.6572 -6.03945
lclavicle 1.98785e-016 -9.54166e-015
lhumerus -50.3602 -3.88733 96.8098
lradius 110.599
lwrist 24.3333
lhand -4.80245 8.0929
lfingers 7.12502
lthumb 20.9832 36.9778
rfemur -23.8559 1.89832 27.9895
rtibia 37.8711
rfoot -9.32141 -9.85656
rtoes 8.26581
lfemur -5.72723 -5.03134 -17.1057
ltibia 67.0978
lfoot 16.7164 -12.8076
ltoes 2.91758
204
root -20.1406 17.1431 10.181 -189.824 -80.1036 192.167
lowerback 12.8991 1.45622 0.465391
upperback 0.51044 2.1965 4.47118
thorax -6.87331 1.08221 4.08194
lowerneck -20.7133 -2.72913 -6.33126
upperneck 19.4827 -1.8004 -0.333639
head 9.66143 -1.39323 0.657334
rclavicle -4.77083e-015 -3.65764e-014
rhumerus -55.7327 1.33302 -87.6335
rradius 99.8857
rwrist -17.2384
rhand -5.61808 23.0043
rfingers 7.12502
rthumb 20.1995 -5.96543
lclavicle -4.77083e-015 -3.65764e-014
lhumerus -50.5738 -2.76348 96.5934
lradius 108.714
lwrist 25.5128
lhand -4.46012 7.02908
lfingers 7.12502
lthumb 21.3121 35.8772
rfemur -22.7805 2.51703 29.3705
rtibia 38.6231
rfoot -10.297 -12.1134
rtoes 4.97987
lfemur -7.57617 -4.35915 -15.2735
ltibia 69.7687
lfoot 14.6528 -11.4595
ltoes -1.63053
205
root -20.4464 17.1051 10.1585 -195.453 -80.1975 197.631
lowerback 13.027 1.5411 1.01901
upperback 0.611564 2.39777 4.88976
thorax -6.84824 1.15937 4.17727
lowerneck -20.8363 -2.79808 -6.62882
upperneck 19.5659 -1.81591 -0.227731
head 9.71895 -1.41244 0.738787
rclavicle -2.32578e-014 -6.36111e-015
rhumerus -54.542 2.33898 -87.8591
rradius 99.9622
rwrist -16.7633
rhand -6.16627 22.9615
rfingers 7.12502
rthumb 19.6725 -6.0631
lclavicle -2.32578e-014 -6.36111e-015
lhumerus -50.6421 -1.91819 96.6336
lradius 106.59
lwrist 26.6426
lhand -5.10142 5.6251
lfingers 7.12502
lthumb 20.696 34.5416
rfemur -21.5367 3.03611 30.381
rtibia 39.0896
rfoot -11.5451 -13.5407
rtoes 5.3825
lfemur -9.36583 -3.76119 -13.6995
ltibia 72.0688
lfoot 12.9147 -10.7001
ltoes -4.2566
206
root -20.7417 17.0626 10.1437 -198.187 -80.3889 200.352
lowerback 13.0332 1.77607 1.33764
upperback 0.690777 2.75163 4.94471
thorax -6.77879 1.31967 3.98702
lowerneck -20.877 -3.00136 -6.43576
upperneck 19.4036 -2.1354 -0.297086
head 9.67549 -1.54778 0.637424
rclavicle -1.61016e-014 1.59028e-014
rhumerus -53.5527 3.24029 -88.4122
rradius 100.455
rwrist -16.8015
rhand -8.16793 23.3658
rfingers 7.12502
rthumb 17.7472 -5.8443
lclavicle -1.61016e-014 1.59028e-014
lhumerus -50.8183 -1.99357 97.1594
lradius 105.155
lwrist 25.0687
lhand -8.53641 7.50975
lfingers 7.12502
lthumb 17.3926 36.7516
rfemur -20.5279 2.96624 30.8078
rtibia 39.446
rfoot -12.6567 -14.2952
rtoes 5.90513
lfemur -11.4334 -3.14129 -12.7272
ltibia 74.1072
lfoot 11.4741 -10.3581
ltoes -5.10449
207
root -21.0274 17.0293 10.1206 -201.854 -80.4735 204.092
lowerback 13.0562 1.97047 1.74652
upperback 0.706149 3.07004 5.02451
thorax -6.77831 1.46072 3.77942
lowerneck -20.9133 -3.19645 -6.01641
upperneck 19.34 -2.46477 -0.591459
head 9.65924 -1.70091 0.418838
rclavicle -4.77083e-015 1.59028e-015
rhumerus -52.5848 4.09429 -88.9124
rradius 101.242
rwrist -18.9797
rhand -7.61155 23.485
rfingers 7.12502
rthumb 18.2826 -5.67581
lclavicle -4.77083e-015 1.59028e-015
lhumerus -50.9751 -1.75579 97.0986
lradius 104.205
lwrist 24.6935
lhand -8.32154 9.1232
lfingers 7.12502
lthumb 17.5994 38.3466
rfemur -19.545 3.08183 31.4428
rtibia 39.7306
rfoot -13.6432 -15.1101
rtoes 5.21532
lfemur -13.6356 -2.30794 -11.4238
ltibia 75.8815
lfoot 10.1511 -10.1962
ltoes -4.8953
208
root -21.3114 16.9961 10.1017 -203.034 -80.6532 205.201
lowerback 13.199 2.11372 1.46978
upperback 0.732316 3.23191 5.16809
thorax -6.86475 1.54963 4.05721
lowerneck -21.1026 -3.27241 -6.24607
upperneck 19.5325 -2.48695 -0.568127
head 9.76704 -1.73028 0.456772
rclavicle 1.19271e-014 1.27222e-014
rhumerus -51.2059 4.59175 -88.9908
rradius 101.664
rwrist -21.2059
rhand -4.98626 23.1705
rfingers 7.12502
rthumb 20.8066 -5.73388
lclavicle 1.19271e-014 1.27222e-014
lhumerus -51.2615 -0.958957 96.9462
lradius 103.695
lwrist 24.393
lhand -7.44933 10.4234
lfingers 7.12502
lthumb 18.4386 39.5695
rfemur -18.4836 3.18262 31.6186
rtibia 40.0163
rfoot -13.9773 -16.2401
rtoes 0.170711
lfemur -15.6417 -1.54866 -10.8391
ltibia 77.2919
lfoot 8.93224 -9.87998
ltoes -4.78571
209
root -21.5906 16.945 10.1011 -202.861 -80.9575 204.855
lowerback 13.4768 1.8441 0.665113
upperback 0.732412 2.78677 5.7067
thorax -7.06213 1.36306 5.1844
lowerneck -21.0203 -2.92683 -7.63137
upperneck 19.5965 -1.68338 -0.133795
head 9.77522 -1.4189 0.950545
rclavicle -2.40529e-014 2.22639e-014
rhumerus -49.9269 6.59432 -89.0095
rradius 101.961
rwrist -20.8157
rhand -4.01542 22.8196
rfingers 7.12502
rthumb 21.7391 -5.97964
lclavicle -2.40529e-014 2.22639e-014
lhumerus -51.9002 1.66649 97.1342
lradius 103.627
lwrist 23.5708
lhand -6.56254 10.5662
lfingers 7.12502
lthumb 19.2915 39.6293
rfemur -17.3498 3.29175 31.4623
rtibia 40.239
rfoot -13.9043 -17.5998
rtoes -5.5471
lfemur -17.6028 -1.01435 -10.7948
ltibia 78.4569
lfoot 7.74118 -9.37614
ltoes -4.63781
